<svg xmlns="http://www.w3.org/2000/svg" xml:space="preserve" viewBox="0 0 1355.6 493.56">
  <style>
    .st0{fill:#3b3b3b}.st1{fill:#8c2332}.st3{fill:#fff}.st6{fill:#b00233}.st7{fill:#f59c04}
  </style>
  <g id="Layer_2">
    <path d="M196.71 457.84h-11.96l-1.98 5.72h-6.32l10.8-30.07h7.01l10.8 30.07h-6.37l-1.98-5.72zm-5.97-17.37-4.34 12.56h8.69l-4.35-12.56zM228.59 439.35c6.11 0 10.88 4.77 10.88 12.22s-4.77 12.39-10.88 12.39c-3.74 0-6.41-1.85-7.87-3.79v14.75h-6.02v-35.19h6.02v3.44c1.42-2.02 4.17-3.82 7.87-3.82zm-1.59 5.29c-3.23 0-6.28 2.5-6.28 7.01s3.05 7.01 6.28 7.01c3.27 0 6.32-2.58 6.32-7.1s-3.05-6.92-6.32-6.92zM255.48 463.56h-6.02v-23.83h6.02v3.7c1.5-2.45 4-4.04 7.31-4.04v6.32h-1.59c-3.57 0-5.72 1.38-5.72 5.98v11.87zM271.79 433.37c0-1.98 1.55-3.53 3.7-3.53 2.11 0 3.7 1.55 3.7 3.53s-1.59 3.53-3.7 3.53c-2.15-.01-3.7-1.55-3.7-3.53zm.64 6.36h6.02v23.83h-6.02v-23.83zM289.98 431.73H296v31.83h-6.02v-31.83zM322.34 458.66c7.1-6.02 14.54-11.57 14.54-17.33 0-2.8-1.25-4.69-4.22-4.69-2.88 0-4.47 2.07-4.52 5.38h-5.85c.21-7.18 4.82-10.5 10.45-10.5 6.75 0 10.15 4 10.15 9.46 0 7.27-7.01 12.95-12 17.16h12.69v4.99h-21.25v-4.47zM374.04 432.12v5.29H360.1v7.36c1.16-1.42 3.53-2.54 6.15-2.54 7.31 0 9.81 5.51 9.81 10.37 0 6.41-3.7 10.97-10.84 10.97-6.75 0-10.62-3.74-11.14-8.86h5.85c.52 2.19 2.28 3.79 5.21 3.79 3.53 0 5.12-2.49 5.12-5.81 0-3.53-1.76-5.46-5.16-5.46-2.5 0-4.09 1.38-4.73 3.31h-5.76v-18.41h19.43zM387.04 445.67h18.24v5.08h-18.24v-5.08zM416.59 458.66c7.1-6.02 14.54-11.57 14.54-17.33 0-2.8-1.25-4.69-4.22-4.69-2.88 0-4.47 2.07-4.52 5.38h-5.85c.21-7.18 4.82-10.5 10.45-10.5 6.75 0 10.15 4 10.15 9.46 0 7.27-7.01 12.95-12 17.16h12.69v4.99h-21.25v-4.47zM467.18 432.29v4.47l-11.44 26.8h-6.11l11.53-26.11h-14.71v-5.16h20.73zM477.51 456.94h6.37l-5.33 12.82h-3.91l2.87-12.82zM508.44 458.66c7.1-6.02 14.54-11.57 14.54-17.33 0-2.8-1.25-4.69-4.22-4.69-2.88 0-4.47 2.07-4.52 5.38h-5.85c.21-7.18 4.82-10.5 10.45-10.5 6.75 0 10.15 4 10.15 9.46 0 7.27-7.01 12.95-12 17.16h12.69v4.99h-21.25v-4.47zM550.68 431.6c8.86 0 11.61 6.8 11.61 15.87 0 9.16-2.75 16-11.61 16s-11.61-6.84-11.61-16c0-9.07 2.75-15.87 11.61-15.87zm0 5.6c-5.08 0-5.68 4.9-5.68 10.28 0 5.59.6 10.41 5.68 10.41s5.68-4.82 5.68-10.41c0-5.38-.6-10.28-5.68-10.28zM572.11 458.66c7.1-6.02 14.54-11.57 14.54-17.33 0-2.8-1.25-4.69-4.22-4.69-2.88 0-4.47 2.07-4.52 5.38h-5.85c.21-7.18 4.82-10.5 10.45-10.5 6.75 0 10.15 4 10.15 9.46 0 7.27-7.01 12.95-12 17.16h12.69v4.99H572.1v-4.47zM613.28 431.47c6.45 0 9.89 3.66 9.89 8.3 0 3.91-2.45 6.32-4.73 7.1v.17c3.18.99 5.29 3.57 5.29 7.83 0 5.12-3.61 8.9-10.19 8.9-6.19 0-10.88-3.1-11.14-9.68h5.85c.13 2.71 1.94 4.65 5.16 4.65 3.01 0 4.56-1.89 4.56-4.39 0-3.53-2.24-4.82-6.71-4.82h-1.25v-4.95h1.25c3.53 0 6.11-.99 6.11-4.09 0-2.45-1.5-3.92-4.26-3.92-2.92 0-4.17 1.89-4.39 3.87h-5.89c.3-5.78 4.42-8.97 10.45-8.97z" class="st0"/>
    <path d="M657.33 428.81v39.96h-6.07v-39.96h6.07z" class="st1"/>
    <path d="M698.28 463.56h-12.95v-30.02h12.39c6.28 0 9.76 3.27 9.76 7.74 0 3.66-2.19 5.94-5.12 6.88 3.4.6 5.81 3.74 5.81 7.27.01 4.78-3.65 8.13-9.89 8.13zm-1.42-25.16h-5.51v7.53h5.51c2.84 0 4.47-1.29 4.47-3.74.01-2.41-1.63-3.79-4.47-3.79zm.43 12.17h-5.94v8.09h6.06c2.93 0 4.65-1.42 4.65-3.96.01-2.58-1.84-4.13-4.77-4.13zM727.92 439.35c3.83 0 6.45 1.81 7.87 3.79v-3.4h6.07v23.83h-6.07v-3.48c-1.42 2.06-4.13 3.87-7.92 3.87-6.02 0-10.84-4.95-10.84-12.39s4.83-12.22 10.89-12.22zm1.55 5.29c-3.23 0-6.28 2.41-6.28 6.93s3.05 7.1 6.28 7.1c3.31 0 6.32-2.5 6.32-7.01s-3-7.02-6.32-7.02zM753.35 431.73h6.02v31.83h-6.02v-31.83zM771.85 444.68h-2.84v-4.95h2.84v-5.89h6.07v5.89h5.33v4.95h-5.33v11.53c0 1.59.65 2.28 2.54 2.28h2.8v5.08h-3.79c-4.56 0-7.61-1.94-7.61-7.4v-11.49zM792.54 433.37c0-1.98 1.55-3.53 3.7-3.53 2.11 0 3.7 1.55 3.7 3.53s-1.59 3.53-3.7 3.53c-2.15-.01-3.7-1.55-3.7-3.53zm.65 6.36h6.02v23.83h-6.02v-23.83zM844.08 450.4c0-3.79-2.11-5.76-5.29-5.76-3.23 0-5.33 1.98-5.33 5.76v13.16h-6.02V450.4c0-3.79-2.11-5.76-5.29-5.76-3.27 0-5.38 1.98-5.38 5.76v13.16h-6.02v-23.83h6.02v2.88c1.5-1.98 4.04-3.23 7.01-3.23 3.7 0 6.75 1.59 8.39 4.56 1.55-2.71 4.69-4.56 8.17-4.56 5.72 0 9.76 3.61 9.76 10.19v13.98h-6.02V450.4zM872 463.95c-6.88 0-12.09-4.82-12.09-12.3 0-7.53 5.38-12.3 12.26-12.3s12.26 4.77 12.26 12.3c0 7.48-5.5 12.3-12.43 12.3zm0-5.25c3.18 0 6.24-2.32 6.24-7.05 0-4.77-2.97-7.05-6.15-7.05s-6.07 2.28-6.07 7.05c0 4.73 2.75 7.05 5.98 7.05zM900.48 463.56h-6.02v-23.83h6.02v3.7c1.5-2.45 4-4.04 7.31-4.04v6.32h-1.59c-3.57 0-5.72 1.38-5.72 5.98v11.87zM927.84 463.95c-6.93 0-11.96-4.82-11.96-12.3 0-7.53 4.9-12.3 11.96-12.3 6.88 0 11.74 4.69 11.74 11.79 0 .77-.04 1.55-.17 2.32h-17.42c.3 3.53 2.71 5.51 5.72 5.51 2.58 0 4-1.29 4.78-2.88h6.5c-1.3 4.38-5.26 7.86-11.15 7.86zm-5.81-14.54h11.31c-.09-3.14-2.58-5.12-5.68-5.12-2.88 0-5.15 1.85-5.63 5.12zM950 456.94h6.37l-5.33 12.82h-3.91l2.87-12.82zM981.96 433.54h6.84l9.55 22.32 9.55-22.32h6.8v30.02h-6.02v-19.53l-8.04 19.53h-4.56l-8.09-19.53v19.53h-6.02v-30.02zM1052.55 448.59c0 9.08-6.24 14.97-15.83 14.97h-10.5v-30.02h10.5c9.59 0 15.83 5.94 15.83 15.05zm-16.04 9.85c6.32 0 9.89-3.61 9.89-9.85s-3.57-9.98-9.89-9.98h-4.26v19.83h4.26zM1063.1 456.94h6.37l-5.33 12.82h-3.91l2.87-12.82zM1094.97 433.54h6.02v18.58c0 4.13 2.24 6.28 6.06 6.28 3.87 0 6.11-2.15 6.11-6.28v-18.58h6.07v18.54c0 7.92-5.68 11.79-12.26 11.79s-12-3.87-12-11.79v-18.54zM1141 463.86c-6.24 0-11.06-3.27-11.14-8.95h6.45c.17 2.41 1.76 4 4.56 4 2.84 0 4.52-1.51 4.52-3.66 0-6.5-15.49-2.58-15.44-13.46 0-5.42 4.39-8.69 10.58-8.69 6.15 0 10.37 3.14 10.75 8.56h-6.62c-.13-1.98-1.72-3.53-4.3-3.57-2.37-.09-4.13 1.08-4.13 3.53 0 6.02 15.4 2.67 15.4 13.25 0 4.74-3.79 8.99-10.63 8.99zM1180.84 457.84h-11.96l-1.98 5.72h-6.32l10.8-30.07h7.01l10.8 30.07h-6.37l-1.98-5.72zm-5.98-17.37-4.34 12.56h8.69l-4.35-12.56z" class="st0"/>
    <path fill="none" stroke="#000" stroke-linecap="round" stroke-linejoin="round" stroke-miterlimit="10" stroke-width="1.1437" d="M103.23 58.58v2.05h1.14"/>
    <g>
      <path d="M22.03 381.61h-4.17v-5.55h10.37v31.36h-6.19v-25.81zM37.61 381.61h-4.17v-5.55H43.8v31.36h-6.19v-25.81zM49.74 382.08h-1.66v-2.88h1.66v-3.44h3.54v3.44h3.11v2.88h-3.11v6.72c0 .93.38 1.33 1.48 1.33h1.63v2.96h-2.21c-2.66 0-4.44-1.13-4.44-4.31v-6.7zM58.92 374.53h3.51v6.4c.9-1.18 2.46-1.93 4.31-1.93 3.14 0 5.42 2.11 5.42 5.95v8.15h-3.51v-7.68c0-2.23-1.23-3.44-3.08-3.44-1.91 0-3.14 1.21-3.14 3.44v7.68h-3.51v-18.57zM86.97 377.4H93v30.02h-6.02V377.4zM115.62 394.26c0-3.83-2.11-5.89-5.29-5.89-3.27 0-5.38 2.07-5.38 5.89v13.16h-6.02v-23.83h6.02v2.97c1.55-2.02 4.13-3.31 7.18-3.31 5.55 0 9.51 3.61 9.51 10.19v13.98h-6.02v-13.16zM128.32 388.54h-2.84v-4.95h2.84v-5.89h6.07v5.89h5.33v4.95h-5.33v11.53c0 1.59.65 2.28 2.54 2.28h2.8v5.08h-3.79c-4.56 0-7.61-1.94-7.61-7.4v-11.49zM154.47 407.81c-6.93 0-11.96-4.82-11.96-12.3 0-7.53 4.9-12.3 11.96-12.3 6.88 0 11.74 4.69 11.74 11.79 0 .77-.04 1.55-.17 2.32h-17.42c.3 3.53 2.71 5.51 5.72 5.51 2.58 0 4-1.29 4.78-2.88h6.5c-1.3 4.37-5.25 7.86-11.15 7.86zm-5.81-14.54h11.31c-.09-3.14-2.58-5.12-5.68-5.12-2.87 0-5.15 1.85-5.63 5.12zM176.63 407.42h-6.02v-23.83h6.02v3.7c1.5-2.45 4-4.04 7.31-4.04v6.32h-1.59c-3.57 0-5.72 1.38-5.72 5.98v11.87zM204.67 394.26c0-3.83-2.11-5.89-5.29-5.89-3.27 0-5.38 2.07-5.38 5.89v13.16h-6.02v-23.83H194v2.97c1.55-2.02 4.13-3.31 7.18-3.31 5.55 0 9.51 3.61 9.51 10.19v13.98h-6.02v-13.16zM225.76 383.2c3.83 0 6.45 1.81 7.87 3.79v-3.4h6.07v23.83h-6.07v-3.48c-1.42 2.06-4.13 3.87-7.92 3.87-6.02 0-10.84-4.95-10.84-12.39s4.82-12.22 10.89-12.22zm1.54 5.29c-3.23 0-6.28 2.41-6.28 6.92 0 4.52 3.05 7.1 6.28 7.1 3.31 0 6.32-2.49 6.32-7.01.01-4.51-3-7.01-6.32-7.01zM246.54 388.54h-2.84v-4.95h2.84v-5.89h6.07v5.89h5.33v4.95h-5.33v11.53c0 1.59.65 2.28 2.54 2.28h2.8v5.08h-3.79c-4.56 0-7.61-1.94-7.61-7.4v-11.49zM261.64 377.22c0-1.98 1.55-3.53 3.7-3.53 2.11 0 3.7 1.55 3.7 3.53 0 1.98-1.59 3.53-3.7 3.53-2.16 0-3.7-1.55-3.7-3.53zm.64 6.37h6.02v23.83h-6.02v-23.83zM284.82 407.81c-6.88 0-12.09-4.82-12.09-12.3 0-7.53 5.38-12.3 12.26-12.3s12.26 4.77 12.26 12.3c0 7.48-5.5 12.3-12.43 12.3zm0-5.25c3.18 0 6.24-2.32 6.24-7.05 0-4.77-2.97-7.05-6.15-7.05s-6.07 2.28-6.07 7.05c0 4.73 2.76 7.05 5.98 7.05zM318.38 394.26c0-3.83-2.11-5.89-5.29-5.89-3.27 0-5.38 2.07-5.38 5.89v13.16h-6.02v-23.83h6.02v2.97c1.55-2.02 4.13-3.31 7.18-3.31 5.55 0 9.51 3.61 9.51 10.19v13.98h-6.02v-13.16zM339.46 383.2c3.83 0 6.45 1.81 7.87 3.79v-3.4h6.07v23.83h-6.07v-3.48c-1.42 2.06-4.13 3.87-7.92 3.87-6.02 0-10.84-4.95-10.84-12.39s4.82-12.22 10.89-12.22zm1.55 5.29c-3.23 0-6.28 2.41-6.28 6.92 0 4.52 3.05 7.1 6.28 7.1 3.31 0 6.32-2.49 6.32-7.01 0-4.51-3.01-7.01-6.32-7.01zM359.29 375.59h6.02v31.83h-6.02v-31.83zM381.49 377.4h6.02v30.02h-6.02V377.4zM410.87 382.26h-11.4v7.53h10.11v4.78h-10.11v7.96h11.4v4.9h-17.42v-30.07h17.42v4.9zM433.76 382.26h-11.4v7.53h10.11v4.78h-10.11v7.96h11.4v4.9h-17.42v-30.07h17.42v4.9zM456.64 382.26h-11.4v7.53h10.11v4.78h-10.11v7.96h11.4v4.9h-17.42v-30.07h17.42v4.9zM489.77 382.26h-11.4v7.53h10.11v4.78h-10.11v7.96h11.4v4.9h-17.42v-30.07h17.42v4.9zM495.24 377.4h6.84l9.55 22.32 9.55-22.32h6.8v30.02h-6.02v-19.53l-8.04 19.53h-4.56l-8.09-19.53v19.53h-6.02V377.4zM546.86 407.42h-12.95V377.4h12.39c6.28 0 9.76 3.27 9.76 7.74 0 3.66-2.19 5.94-5.12 6.88 3.4.6 5.81 3.74 5.81 7.27 0 4.78-3.66 8.13-9.89 8.13zm-1.42-25.16h-5.51v7.53h5.51c2.84 0 4.47-1.29 4.47-3.74 0-2.42-1.63-3.79-4.47-3.79zm.43 12.17h-5.94v8.09H546c2.93 0 4.65-1.42 4.65-3.96-.01-2.58-1.86-4.13-4.78-4.13zM571.94 407.72c-6.24 0-11.06-3.27-11.14-8.95h6.45c.17 2.41 1.76 4 4.56 4 2.84 0 4.52-1.5 4.52-3.66 0-6.49-15.49-2.58-15.44-13.46 0-5.42 4.39-8.69 10.58-8.69 6.15 0 10.37 3.14 10.75 8.56h-6.62c-.13-1.98-1.72-3.53-4.3-3.57-2.37-.09-4.13 1.08-4.13 3.53 0 6.02 15.4 2.67 15.4 13.25-.01 4.73-3.79 8.99-10.63 8.99zM611.77 377.01c6.67 0 12.09 3.57 14.11 9.72h-6.93c-1.42-2.88-4-4.3-7.23-4.3-5.25 0-8.99 3.83-8.99 9.94 0 6.07 3.74 9.94 8.99 9.94 3.23 0 5.81-1.42 7.23-4.34h6.93c-2.02 6.19-7.44 9.72-14.11 9.72-8.65 0-15.23-6.32-15.23-15.31.01-9 6.59-15.37 15.23-15.37zM641.63 407.81c-6.88 0-12.09-4.82-12.09-12.3 0-7.53 5.38-12.3 12.26-12.3s12.26 4.77 12.26 12.3c0 7.48-5.5 12.3-12.43 12.3zm0-5.25c3.18 0 6.24-2.32 6.24-7.05 0-4.77-2.97-7.05-6.15-7.05s-6.07 2.28-6.07 7.05c0 4.73 2.75 7.05 5.98 7.05zM675.18 394.26c0-3.83-2.11-5.89-5.29-5.89-3.27 0-5.38 2.07-5.38 5.89v13.16h-6.02v-23.83h6.02v2.97c1.55-2.02 4.13-3.31 7.18-3.31 5.55 0 9.51 3.61 9.51 10.19v13.98h-6.02v-13.16zM687.58 388.54h-2.71v-4.95h2.71v-1.21c0-5.85 3.31-8.56 10.02-8.39v5.08c-2.92-.09-3.91.86-3.91 3.53v.99h4.17v4.95h-4.17v18.88h-6.11v-18.88zM712.18 407.81c-6.93 0-11.96-4.82-11.96-12.3 0-7.53 4.9-12.3 11.96-12.3 6.88 0 11.74 4.69 11.74 11.79 0 .77-.04 1.55-.17 2.32h-17.42c.3 3.53 2.71 5.51 5.72 5.51 2.58 0 4-1.29 4.78-2.88h6.5c-1.3 4.37-5.25 7.86-11.15 7.86zm-5.8-14.54h11.31c-.09-3.14-2.58-5.12-5.68-5.12-2.88 0-5.16 1.85-5.63 5.12zM734.34 407.42h-6.02v-23.83h6.02v3.7c1.5-2.45 4-4.04 7.31-4.04v6.32h-1.59c-3.57 0-5.72 1.38-5.72 5.98v11.87zM756.11 407.81c-6.93 0-11.96-4.82-11.96-12.3 0-7.53 4.9-12.3 11.96-12.3 6.88 0 11.74 4.69 11.74 11.79 0 .77-.04 1.55-.17 2.32h-17.42c.3 3.53 2.71 5.51 5.72 5.51 2.58 0 4-1.29 4.78-2.88h6.5c-1.3 4.37-5.26 7.86-11.15 7.86zm-5.81-14.54h11.31c-.09-3.14-2.58-5.12-5.68-5.12-2.88 0-5.16 1.85-5.63 5.12zM788.93 394.26c0-3.83-2.11-5.89-5.29-5.89-3.27 0-5.38 2.07-5.38 5.89v13.16h-6.02v-23.83h6.02v2.97c1.55-2.02 4.13-3.31 7.18-3.31 5.55 0 9.51 3.61 9.51 10.19v13.98h-6.02v-13.16zM810.91 383.2c5.94 0 9.94 3.1 11.23 8.43h-6.5c-.69-2.02-2.28-3.31-4.78-3.31-3.35 0-5.59 2.54-5.59 7.18 0 4.65 2.24 7.14 5.59 7.14 2.5 0 4.04-1.12 4.78-3.27h6.5c-1.29 5.08-5.29 8.43-11.23 8.43-6.88 0-11.79-4.82-11.79-12.3s4.91-12.3 11.79-12.3zM836.98 407.81c-6.93 0-11.96-4.82-11.96-12.3 0-7.53 4.9-12.3 11.96-12.3 6.88 0 11.74 4.69 11.74 11.79 0 .77-.04 1.55-.17 2.32h-17.42c.3 3.53 2.71 5.51 5.72 5.51 2.58 0 4-1.29 4.78-2.88h6.5c-1.3 4.37-5.25 7.86-11.15 7.86zm-5.8-14.54h11.31c-.09-3.14-2.58-5.12-5.68-5.12-2.88 0-5.16 1.85-5.63 5.12zM873.94 407.81c-6.88 0-12.09-4.82-12.09-12.3 0-7.53 5.38-12.3 12.26-12.3s12.26 4.77 12.26 12.3c0 7.48-5.51 12.3-12.43 12.3zm0-5.25c3.18 0 6.24-2.32 6.24-7.05 0-4.77-2.97-7.05-6.15-7.05s-6.07 2.28-6.07 7.05c0 4.73 2.75 7.05 5.98 7.05zM907.49 394.26c0-3.83-2.11-5.89-5.29-5.89-3.27 0-5.38 2.07-5.38 5.89v13.16h-6.02v-23.83h6.02v2.97c1.55-2.02 4.13-3.31 7.18-3.31 5.55 0 9.51 3.61 9.51 10.19v13.98h-6.02v-13.16zM955.16 377.35v30.07h-6.02l-13.64-20.6v20.6h-6.02v-30.07h6.02L949.13 398v-20.65h6.03zM971.5 407.81c-6.93 0-11.96-4.82-11.96-12.3 0-7.53 4.9-12.3 11.96-12.3 6.88 0 11.74 4.69 11.74 11.79 0 .77-.04 1.55-.17 2.32h-17.42c.3 3.53 2.71 5.51 5.72 5.51 2.58 0 4-1.29 4.78-2.88h6.5c-1.3 4.37-5.25 7.86-11.15 7.86zm-5.8-14.54h11.31c-.09-3.14-2.58-5.12-5.68-5.12-2.88 0-5.16 1.85-5.63 5.12zM1010.13 407.42h-6.07v-3.01c-1.5 2.02-4.13 3.31-7.1 3.31-5.55 0-9.55-3.61-9.55-10.15v-13.98h6.02v13.12c0 3.83 2.11 5.89 5.29 5.89 3.27 0 5.33-2.06 5.33-5.89v-13.12h6.07v23.83zM1022.1 407.42h-6.02v-23.83h6.02v3.7c1.5-2.45 4-4.04 7.31-4.04v6.32h-1.59c-3.57 0-5.72 1.38-5.72 5.98v11.87zM1042.79 383.2c3.83 0 6.45 1.81 7.87 3.79v-3.4h6.07v23.83h-6.07v-3.48c-1.42 2.06-4.13 3.87-7.92 3.87-6.02 0-10.84-4.95-10.84-12.39s4.82-12.22 10.89-12.22zm1.55 5.29c-3.23 0-6.28 2.41-6.28 6.92 0 4.52 3.05 7.1 6.28 7.1 3.31 0 6.32-2.49 6.32-7.01 0-4.51-3.01-7.01-6.32-7.01zM1062.62 375.59h6.02v31.83h-6.02v-31.83zM1102.24 382.26h-11.4v7.53h10.11v4.78h-10.11v7.96h11.4v4.9h-17.42v-30.07h17.42v4.9zM1124.4 394.26c0-3.83-2.11-5.89-5.29-5.89-3.27 0-5.38 2.07-5.38 5.89v13.16h-6.02v-23.83h6.02v2.97c1.55-2.02 4.13-3.31 7.18-3.31 5.55 0 9.51 3.61 9.51 10.19v13.98h-6.02v-13.16zM1145.48 383.2c3.74 0 6.45 1.72 7.87 3.79v-3.4h6.07v24c0 6.45-3.96 11.57-11.79 11.57-6.71 0-11.4-3.36-12-8.82h5.98c.6 2.15 2.84 3.57 5.85 3.57 3.31 0 5.89-1.89 5.89-6.32v-3.7c-1.42 2.06-4.13 3.91-7.87 3.91-6.06 0-10.88-4.95-10.88-12.39s4.81-12.21 10.88-12.21zm1.55 5.29c-3.23 0-6.28 2.41-6.28 6.92 0 4.52 3.05 7.1 6.28 7.1 3.31 0 6.32-2.49 6.32-7.01 0-4.51-3.01-7.01-6.32-7.01zM1164.67 377.22c0-1.98 1.55-3.53 3.7-3.53 2.11 0 3.7 1.55 3.7 3.53 0 1.98-1.59 3.53-3.7 3.53-2.16 0-3.7-1.55-3.7-3.53zm.64 6.37h6.02v23.83h-6.02v-23.83zM1193.96 394.26c0-3.83-2.11-5.89-5.29-5.89-3.27 0-5.38 2.07-5.38 5.89v13.16h-6.02v-23.83h6.02v2.97c1.55-2.02 4.13-3.31 7.18-3.31 5.55 0 9.51 3.61 9.51 10.19v13.98h-6.02v-13.16zM1216.12 407.81c-6.93 0-11.96-4.82-11.96-12.3 0-7.53 4.9-12.3 11.96-12.3 6.88 0 11.74 4.69 11.74 11.79 0 .77-.04 1.55-.17 2.32h-17.42c.3 3.53 2.71 5.51 5.72 5.51 2.58 0 4-1.29 4.78-2.88h6.5c-1.3 4.37-5.26 7.86-11.15 7.86zm-5.81-14.54h11.31c-.09-3.14-2.58-5.12-5.68-5.12-2.88 0-5.16 1.85-5.63 5.12zM1242.66 407.81c-6.93 0-11.96-4.82-11.96-12.3 0-7.53 4.9-12.3 11.96-12.3 6.88 0 11.74 4.69 11.74 11.79 0 .77-.04 1.55-.17 2.32h-17.42c.3 3.53 2.71 5.51 5.72 5.51 2.58 0 4-1.29 4.78-2.88h6.5c-1.3 4.37-5.26 7.86-11.15 7.86zm-5.81-14.54h11.31c-.09-3.14-2.58-5.12-5.68-5.12-2.87 0-5.15 1.85-5.63 5.12zM1264.82 407.42h-6.02v-23.83h6.02v3.7c1.5-2.45 4-4.04 7.31-4.04v6.32h-1.59c-3.57 0-5.72 1.38-5.72 5.98v11.87zM1275.53 377.22c0-1.98 1.55-3.53 3.7-3.53 2.11 0 3.7 1.55 3.7 3.53 0 1.98-1.59 3.53-3.7 3.53-2.15 0-3.7-1.55-3.7-3.53zm.64 6.37h6.02v23.83h-6.02v-23.83zM1304.82 394.26c0-3.83-2.11-5.89-5.29-5.89-3.27 0-5.38 2.07-5.38 5.89v13.16h-6.02v-23.83h6.02v2.97c1.55-2.02 4.13-3.31 7.18-3.31 5.55 0 9.51 3.61 9.51 10.19v13.98h-6.02v-13.16zM1325.9 383.2c3.74 0 6.45 1.72 7.87 3.79v-3.4h6.07v24c0 6.45-3.96 11.57-11.79 11.57-6.71 0-11.4-3.36-12-8.82h5.98c.6 2.15 2.84 3.57 5.85 3.57 3.31 0 5.89-1.89 5.89-6.32v-3.7c-1.42 2.06-4.13 3.91-7.87 3.91-6.06 0-10.88-4.95-10.88-12.39s4.82-12.21 10.88-12.21zm1.55 5.29c-3.23 0-6.28 2.41-6.28 6.92 0 4.52 3.05 7.1 6.28 7.1 3.31 0 6.32-2.49 6.32-7.01.01-4.51-3-7.01-6.32-7.01z" class="st0"/>
    </g>
    <g>
      <path d="M530.34 135.94h33.6l22.67 100.71V135.94h31.87v204.48h-33.6l-21.65-97.95v97.95h-32.89V135.94zM645.04 135.94h80.07v32.58h-46.06v53.31h39.63v32.68h-39.63v53.32h46.06v32.58h-80.07V135.94zM746.56 135.94h44.63c27.37.07 41.06 14.81 41.06 44.22v30.13c0 18.52-7.42 30.5-22.27 35.95l32.79 94.17H805.7l-23.29-87.94h-1.84v87.94h-34.01V135.94zm34.02 32.58v53.31h4.08c3.68 0 6.06-.2 7.15-.61 4.29-1.7 6.43-5.34 6.43-10.93v-30.13c0-7.76-3.34-11.64-10.01-11.64h-7.65zM911 295.37c0-18.66 9.29-34.62 27.88-47.9 17.43-12.46 26.18-22.88 26.25-31.25V176.9c0-7.69-3.3-11.54-9.91-11.54h-.2c-6.67 0-10.01 3.85-10.01 11.54v28.9H911v-28.9c0-29.48 14.67-44.22 44.02-44.22 29.42 0 44.12 14.74 44.12 44.22v40.04c0 19-9.33 35.17-27.99 48.51C953.72 277.91 945 288.7 945 297.83v10.01h54.13v32.58H911v-45.05zM1112.82 299.46c0 29.42-14.71 44.12-44.12 44.12-29.35 0-44.02-14.71-44.02-44.12V176.89c0-29.48 14.67-44.22 44.02-44.22 29.42 0 44.12 14.74 44.12 44.22v122.57zm-34.01-122.57c0-7.69-3.34-11.54-10.01-11.54h-.2c-6.61 0-9.91 3.85-9.91 11.54v122.56c0 7.7 3.33 11.54 10.01 11.54 6.74 0 10.11-3.85 10.11-11.54V176.89zM1138.36 295.37c0-18.66 9.29-34.62 27.88-47.9 17.43-12.46 26.18-22.88 26.25-31.25V176.9c0-7.69-3.3-11.54-9.91-11.54h-.2c-6.67 0-10.01 3.85-10.01 11.54v28.9h-34.01v-28.9c0-29.48 14.67-44.22 44.02-44.22 29.42 0 44.12 14.74 44.12 44.22v40.04c0 19-9.33 35.17-27.99 48.51-17.43 12.46-26.15 23.25-26.15 32.38v10.01h54.13v32.58h-88.14v-45.05zM1286.76 299.35c.2 7.7 3.68 11.54 10.42 11.54 6.67 0 10.11-3.85 10.32-11.54v-34.11c0-6.47-1.09-10.18-3.27-11.13-1.23-.54-3.34-.82-6.33-.82h-12.36v-32.58h14.61c2.18 0 3.74-.27 4.7-.82 1.77-1.02 2.66-4.56 2.66-10.62v-32.38c-.2-7.69-3.64-11.54-10.32-11.54-6.74 0-10.21 3.85-10.42 11.54v28.9h-33.71v-28.9c0-29.42 14.71-44.16 44.12-44.22 29.35 0 44.02 14.74 44.02 44.22v32.58c0 13.89-4.56 23.19-13.69 27.88 9.12 4.7 13.69 13.99 13.69 27.88v34.11c0 29.48-14.67 44.22-44.02 44.22-29.42-.07-44.12-14.81-44.12-44.22v-28.9h33.71v28.91z" class="st1"/>
    </g>
    <g>
      <path d="M375.03 101.75H495v80.02H375.03z" class="st3"/>
      <path d="M375.03 21.73H495v80.02H375.03z" class="st6"/>
      <path d="M255.06 21.73h119.97v80.02H255.06z" class="st3"/>
      <path d="M255.06 101.75h119.97v80.02H255.06z" class="st6"/>
      <path d="M55.11 75.82v105.95H15.12V49.23z" class="st7"/>
      <path d="M95.1 102.42v79.35H55.11V75.82z"/>
      <path d="M135.09 129.01v52.76H95.1v-79.35z" class="st7"/>
      <path d="M175.08 155.6v26.17h-39.99v-52.76z"/>
      <path d="M214.42 181.77h-39.34V155.6z" class="st7"/>
      <path d="M55.11 21.73v54.09L15.12 49.23v-27.5z"/>
      <path d="M95.1 48.32v54.1l-39.99-26.6V21.73z" class="st7"/>
      <path d="M95.1 21.73v26.59L55.11 21.73z"/>
      <path d="M135.09 21.73v53.19L95.1 48.32V21.73z" class="st7"/>
      <path d="M135.09 74.92v54.09L95.1 102.42v-54.1z"/>
      <path d="M175.08 101.51v54.09l-39.99-26.59V74.92z" class="st7"/>
      <path d="M175.08 21.73v79.78l-39.99-26.59V21.73z"/>
      <path d="M215.07 21.73v106.38l-39.99-26.6V21.73z" class="st7"/>
      <path d="M215.07 128.11v53.66h-.65l-39.34-26.17v-54.09z"/>
      <path d="M255.06 154.7v27.07h-39.99v-53.66z" class="st7"/>
      <path d="M255.06 21.73V154.7l-39.99-26.59V21.73z"/>
      <path d="M374.96 33.01v68.51H260.79c0-5.53 4.49-10.01 10.02-10.01h9.18v-10c0-5.53 4.48-10.02 10.01-10.02 5.53 0 10.01 4.49 10.01 10.02v10h64.92v-22.9h-10.01c-2.76 0-5.27-1.12-7.08-2.94-1.81-1.81-2.94-4.31-2.94-7.08 0-5.53 4.49-10.02 10.01-10.02h10.01v-5.55c.02-5.53 4.5-10.01 10.04-10.01z" class="st6"/>
      <path d="M489.11 101.51H374.96v-68.5c5.53 0 10.01 4.49 10.01 10.02v5.55h10c5.53 0 10.01 4.49 10.01 10.02 0 5.53-4.48 10.01-10.01 10.01h-10V91.5h64.92v-10c0-2.76 1.12-5.27 2.93-7.08 1.81-1.81 4.32-2.94 7.08-2.94 5.53 0 10.01 4.49 10.01 10.02v10h9.18c5.54 0 10.02 4.48 10.02 10.01zM374.96 101.51v68.51c-5.53 0-10.01-4.49-10.01-10.02v-5.55h-10c-5.53 0-10.02-4.49-10.02-10.02 0-5.53 4.49-10.01 10.02-10.01h10v-22.89h-64.92v10c0 2.76-1.12 5.27-2.93 7.08-1.81 1.81-4.32 2.94-7.08 2.94-5.53 0-10.01-4.49-10.01-10.02v-10h-9.18c-2.77 0-5.27-1.12-7.08-2.93-1.81-1.81-2.94-4.31-2.94-7.08h114.15z" class="st3"/>
      <path d="M489.11 101.51c0 5.53-4.48 10.01-10.01 10.01h-9.18v10c0 5.53-4.48 10.02-10.01 10.02s-10.01-4.49-10.01-10.02v-10h-64.92v22.89h10c2.76 0 5.27 1.12 7.08 2.94 1.81 1.81 2.94 4.31 2.94 7.08 0 5.53-4.49 10.02-10.02 10.02h-10V160c0 2.77-1.12 5.27-2.93 7.08-1.81 1.81-4.31 2.94-7.08 2.94v-68.51h114.14z" class="st6"/>
      <path d="M14.88 181.77h119.97v80.02H14.88z" class="st3"/>
      <path d="M14.88 261.79h119.97v80.02H14.88z" class="st6"/>
      <path d="M134.84 261.79h119.97v80.02H134.84z" class="st3"/>
      <path d="M134.84 181.77h119.97v80.02H134.84z" class="st6"/>
      <path d="M454.76 287.71V181.77h39.99v132.54z" class="st7"/>
      <path d="M414.77 261.12v-79.35h39.99v105.94z"/>
      <path d="M374.78 234.53v-52.76h39.99v79.35z" class="st7"/>
      <path d="M334.79 207.93v-26.16h39.99v52.76z"/>
      <path d="M295.45 181.77h39.34v26.16z" class="st7"/>
      <path d="M454.76 341.8v-54.09l39.99 26.6v27.49z"/>
      <path d="M414.77 315.21v-54.09l39.99 26.59v54.09z" class="st7"/>
      <path d="M414.77 341.8v-26.59l39.99 26.59z"/>
      <path d="M374.78 341.8v-53.18l39.99 26.59v26.59z" class="st7"/>
      <path d="M374.78 288.62v-54.09l39.99 26.59v54.09z"/>
      <path d="M334.79 262.02v-54.09l39.99 26.6v54.09z" class="st7"/>
      <path d="M334.79 341.8v-79.78l39.99 26.6v53.18z"/>
      <path d="M294.8 341.8V235.43l39.99 26.59v79.78z" class="st7"/>
      <path d="M294.8 235.43v-53.66h.65l39.34 26.16v54.09z"/>
      <path d="M254.81 208.83v-27.06h39.99v53.66z" class="st7"/>
      <path d="M254.81 341.8V208.83l39.99 26.6V341.8z"/>
      <path d="M134.92 330.53v-68.51h114.16c0 5.53-4.49 10.01-10.02 10.01h-9.18v10c0 5.53-4.48 10.02-10.01 10.02-5.53 0-10.01-4.49-10.01-10.02v-10h-64.92v22.89h10.01c2.76 0 5.27 1.12 7.08 2.94 1.81 1.81 2.94 4.31 2.94 7.08 0 5.53-4.49 10.02-10.01 10.02h-10.01v5.55c-.02 5.53-4.5 10.02-10.03 10.02z" class="st6"/>
      <path d="M20.76 262.02h114.16v68.51c-5.53 0-10.01-4.49-10.01-10.02v-5.55h-10c-5.53 0-10.01-4.49-10.01-10.02 0-5.53 4.48-10.01 10.01-10.01h10v-22.89H59.98v10c0 2.76-1.12 5.27-2.93 7.08-1.81 1.81-4.32 2.94-7.08 2.94-5.53 0-10.01-4.49-10.01-10.02v-10h-9.18c-5.54 0-10.02-4.49-10.02-10.02zM134.92 262.02v-68.51c5.53 0 10.01 4.49 10.01 10.02v5.55h10c5.53 0 10.02 4.49 10.02 10.02 0 5.53-4.49 10.01-10.02 10.01h-10V252h64.92v-10c0-2.76 1.12-5.27 2.93-7.08 1.81-1.81 4.32-2.94 7.08-2.94 5.53 0 10.01 4.49 10.01 10.02v10h9.18c2.77 0 5.27 1.12 7.08 2.93 1.81 1.81 2.94 4.31 2.94 7.08H134.92z" class="st3"/>
      <path d="M20.76 262.02c0-5.53 4.48-10.01 10.01-10.01h9.18v-10c0-5.53 4.48-10.02 10.01-10.02 5.53 0 10.01 4.49 10.01 10.02v10h64.92v-22.89h-10c-2.76 0-5.27-1.12-7.08-2.94-1.81-1.81-2.94-4.31-2.94-7.08 0-5.53 4.49-10.02 10.02-10.02h10v-5.55c0-2.77 1.12-5.27 2.93-7.08 1.81-1.81 4.31-2.94 7.08-2.94v68.51H20.76z" class="st6"/>
    </g>
    <g>
      <path d="M556.49 112.08c-11.82-.12-14.65 0-25.11.37l-.62-.62c.25-17.73.37-35.46.37-53.18 0-15.27-.25-24.01-.62-32.75l.74-.74c10.96.12 13.54.12 24.99-.37l.74.74c-.25 6.65-.62 16.99-.62 35.46 0 16.87.12 33.61.74 50.47l-.61.62zM618.41 76.01c-5.17-.12-15.39-.12-21.79-.12v17.73c6.03 0 18.96-.12 26.34-.74l.74.74c-.62 7.88-.74 10.22-.99 17.73l-.74.74h-27.33c-12.68 0-14.53 0-22.28.37l-.62-.74c.25-9.23.49-19.45.49-39.15 0-15.51 0-32.01-.86-46.66l.74-.74c5.42 0 6.89 0 20.56-.12 20.19-.12 22.53-.12 28.68-.25l.62.74c-.62 7.88-.62 10.22-.86 16.5l-.74.74c-1.97 0-11.82-.12-14.03-.12-1.35 0-2.09 0-9.73.12-.12 7.51-.12 9.23 0 16.13 7.02 0 17.24-.25 22.65-.49l.74.74c-.49 6.77-.49 9.36-.86 16.13l-.73.72zM682.55 76.01c-5.17-.12-15.39-.12-21.79-.12v17.73c6.03 0 18.96-.12 26.34-.74l.74.74c-.62 7.88-.74 10.22-.99 17.73l-.74.74h-27.33c-12.68 0-14.53 0-22.28.37l-.62-.74c.25-9.23.49-19.45.49-39.15 0-15.51 0-32.01-.86-46.66l.74-.74c5.42 0 6.89 0 20.56-.12 20.19-.12 22.53-.12 28.68-.25l.62.74c-.62 7.88-.62 10.22-.86 16.5l-.74.74c-1.97 0-11.82-.12-14.03-.12-1.35 0-2.09 0-9.73.12-.12 7.51-.12 9.23 0 16.13 7.02 0 17.24-.25 22.65-.49l.74.74c-.49 6.77-.49 9.36-.86 16.13l-.73.72zM746.68 76.01c-5.17-.12-15.39-.12-21.79-.12v17.73c6.03 0 18.96-.12 26.34-.74l.74.74c-.62 7.88-.74 10.22-.99 17.73l-.74.74h-27.33c-12.68 0-14.53 0-22.28.37l-.62-.74c.25-9.23.49-19.45.49-39.15 0-15.51 0-32.01-.86-46.66l.74-.74c5.42 0 6.89 0 20.56-.12 20.19-.12 22.53-.12 28.68-.25l.62.74c-.62 7.88-.62 10.22-.86 16.5l-.74.74c-1.97 0-11.82-.12-14.03-.12-1.35 0-2.09 0-9.73.12-.12 7.51-.12 9.23 0 16.13 7.02 0 17.24-.25 22.65-.49l.74.74c-.49 6.77-.49 9.36-.86 16.13l-.73.72zM754.92 117l24.99-89.13h13.54L768.47 117h-13.55zM844.05 76.01c-5.17-.12-15.39-.12-21.79-.12v17.73c6.03 0 18.96-.12 26.34-.74l.74.74c-.62 7.88-.74 10.22-.99 17.73l-.74.74h-27.33c-12.68 0-14.53 0-22.28.37l-.62-.74c.25-9.23.49-19.45.49-39.15 0-15.51 0-32.01-.86-46.66l.74-.74c5.42 0 6.89 0 20.56-.12 20.19-.12 22.53-.12 28.68-.25l.62.74c-.62 7.88-.62 10.22-.86 16.5l-.74.74c-1.97 0-11.82-.12-14.03-.12-1.35 0-2.09 0-9.73.12-.12 7.51-.12 9.23 0 16.13 7.02 0 17.24-.25 22.65-.49l.74.74c-.49 6.77-.49 9.36-.86 16.13l-.73.72zM907.33 71.82l5.29-26.35 1.85-8.49c.37-1.6 1.72-9.36 2.09-11.08l.74-.74c13.91 0 17.85-.12 31.02-.37l.74.74c.25 7.51.37 10.83.86 24.25l.86 18.71c1.11 24.62 1.6 31.02 2.34 42.84l-.74.74c-10.96-.12-12.93 0-23.51.37l-.62-.74c-.25-19.33-.25-21.3-.74-37.3V49.42l-7.76 35.21c-1.23 5.79-3.32 16.25-5.42 26.71l-.86.74c-7.88-.12-9.85 0-17.24.37l-.74-.74c-.99-4.8-1.23-5.79-3.2-14.16-.86-3.94-1.72-7.76-2.58-11.57l-7.88-35.33-.49 22.04c-.37 25.85-.37 28.68-.37 38.66l-.62.74c-9.36 0-12.19.12-19.33.37l-.74-.74c.49-10.46 1.35-27.08 1.85-37.42l.98-27.08c0-2.71.12-5.42.25-8 .25-7.63.25-8.49.37-13.3l.74-.74c13.17 0 16.62 0 31.52-.37l.86.74c.86 4.55 1.23 6.16 4.43 20.31l6.05 25.96zM966.78 25.04c9.6 0 14.9-.12 20.44-.25 7.26-.12 8.12-.12 10.09-.12 12.19 0 29.67 0 29.67 20.56 0 9.73-5.05 15.51-11.45 18.47-.86.37-1.85.74-2.71 1.11.86.12 1.85.25 2.71.49 2.34.49 4.56 1.48 6.65 2.83 7.02 4.8 8 12.56 8 17.48 0 10.59-5.17 17.73-10.09 21.17-7.02 5.05-16.62 5.17-22.65 5.29h-14.65c-2.22 0-13.17.12-15.63.25l-.74-.74c.37-15.02.62-29.79.62-44.81 0-13.67-.12-27.33-.74-41l.48-.73zm37.3 60.32c0-9.73-7.14-9.48-13.17-9.23v20.44c5.29.24 13.17.49 13.17-11.21zm-.61-36.19c0-9.11-6.28-9.11-8.74-9.11-.37 0-2.09 0-3.57.12-.12 8.74-.12 10.96 0 19.33 5.04.12 12.31.37 12.31-10.34zM1085.33 46.34c-3.2-2.59-7.02-5.66-13.91-5.66-4.8 0-8.62 2.71-8.62 7.02 0 4.19 3.2 7.02 9.11 10.96 11.33 7.88 18.59 12.8 18.59 26.47 0 8.37-2.95 15.02-6.89 19.45-6.89 7.63-16.25 9.23-25.11 9.23-6.77 0-13.54-1.23-18.84-3.82l-.74-1.11c.25-3.2.49-6.4.62-9.6.12-2.71.12-5.42.25-8.12l.86-.37c1.72 1.48 6.65 5.54 15.14 5.54 8.86 0 9.85-6.65 9.85-8.49 0-4.43-3.45-6.89-8.25-10.34l-5.05-3.45c-5.79-4.19-13.79-9.97-13.79-24.13 0-8.74 3.08-15.26 7.26-19.45 5.05-4.92 12.31-7.14 21.67-7.14 10.83 0 16.99 2.95 19.33 4.06l.49.86c-.25 3.08-.49 6.16-.62 9.23l-.37 8.49-.98.37z" class="st0"/>
    </g>
  </g>
</svg>
